<svg width="96" height="24" viewBox="0 0 96 24" xmlns="http://www.w3.org/2000/svg" role="img" aria-label="NVIDIA">
  <defs>
    <linearGradient id="g" x1="0" x2="1" y1="0" y2="1">
      <stop offset="0%" stop-color="#76b900"/>
      <stop offset="100%" stop-color="#5ea500"/>
    </linearGradient>
  </defs>
  <g fill="url(#g)">
    <rect x="0" y="4" width="16" height="16" rx="3"/>
    <path d="M4 8c3-3 7-3 10 0v2c-3-3-7-3-10 0V8zm0 4c3-3 7-3 10 0v2c-3-3-7-3-10 0v-2zm0 4c3-3 7-3 10 0v2c-3-3-7-3-10 0v-2z" fill="#0b150c"/>
    <text x="22" y="18" font-family="Inter, Arial, sans-serif" font-size="14" font-weight="700" fill="#e6f0f2">NVIDIA</text>
  </g>
</svg>
