<?xml version="1.0" encoding="UTF-8"?>
<svg width="256" height="256" viewBox="0 0 256 256" xmlns="http://www.w3.org/2000/svg" role="img" aria-label="NVIDIA Logo">
  <defs>
    <linearGradient id="g" x1="0" y1="0" x2="1" y2="1">
      <stop offset="0%" stop-color="#76b900" />
      <stop offset="100%" stop-color="#8cd600" />
    </linearGradient>
  </defs>
  <rect width="256" height="256" fill="#0b0b0c" />
  <g transform="translate(28,28)">
    <path fill="url(#g)" d="M0 64C24 24 72 0 120 0c48 0 96 24 108 64-12 40-60 64-108 64-48 0-96-24-120-64zm36 0c18-26 54-40 84-40s66 14 78 40c-12 26-48 40-78 40s-66-14-84-40zm36 0c12-14 30-24 48-24s42 10 54 24c-12 14-36 24-54 24s-36-10-48-24zm36 0c6-6 12-8 12-8s6 2 12 8c-6 6-12 8-12 8s-6-2-12-8z"/>
  </g>
</svg>
